<svg xmlns="http://www.w3.org/2000/svg" fill="none" height="36" width="36">
  <path fill="#bd1622" d="M17.728 22.296c-1.03.001-1.82-.811-1.83-1.88-.01-.99.796-1.842 1.748-1.848a1.854 1.854 0 0 1 1.878 1.846c.007.996-.836 1.88-1.796 1.882zm1.271.265c.709.46 1.486.658 2.313.555.331-.041.808-.123.935-.352.293-.523.412-1.148.65-1.886-1.195.299-2.194.32-3.232-.246.286-.18.477-.304.67-.423.736-.452 1.287-1.065 1.533-1.917.07-.243.172-.592.063-.753-.341-.501-.776-.936-1.247-1.482-.365 1.187-.838 2.084-1.785 2.719-.053-.58-.073-1.063-.146-1.537-.13-.842-.518-1.633-1.256-1.954-.575-.25-1.285.04-1.92.415.761.803 1.247 1.685 1.349 2.899-.297-.167-.493-.27-.683-.385-.692-.418-1.445-.6-2.23-.458-.351.062-.811.221-.973.492-.273.453-.347 1.031-.549 1.705 1.159-.3 2.178-.297 3.268.248-.265.16-.442.235-.582.356-.426.367-.892.706-1.24 1.143-.358.452-.746 1.049-.492 1.614.24.536.764.939 1.258 1.51.353-1.2.842-2.082 1.812-2.761.024.32.02.546.063.762.12.592.174 1.219.412 1.76.497 1.138 1.814 1.368 2.763.552-1.05-1.507-1.284-2.033-1.214-2.832.172.095.322.166.46.256z"/>
  <path fill="#3c3c3b" d="M17.687 21.394c-.446.002-.883-.472-.89-.966-.005-.482.445-.96.898-.953.506.007.89.413.888.939-.001.55-.393.977-.896.98zm-.02-2.268c-.648.004-1.198.6-1.191 1.295.007.749.546 1.318 1.248 1.317.654 0 1.23-.62 1.224-1.319-.005-.724-.573-1.298-1.28-1.293z"/>
  <path fill="#3c3c3b" d="m30.184 20.635-.236-.318-.19-6.849-.028-1.042c-.021-.76-.592-1.387-1.329-1.396l-3.897-.046c-.72-.009-1.324.646-1.328 1.395l-.004.73-3.944-4.567-.881-1.02c-.45-.522-1.437-.563-1.88 0l-5.06 6.428-8.035 10.204-1.85 2.349c-.345.44-.505.973-.274 1.524.211.505.675.858 1.214.858h23.772c.695 0 1.36-.642 1.329-1.395-.032-.757-.584-1.396-1.329-1.396H5.278l3.185-4.046 8.034-10.204.954-1.211 5.21 6.034.882 1.02c.79.916 2.262.18 2.268-.986l.015-2.91 1.285.015.166 6.011c.009.324.007.65.027.974.038.6.402 1.009.733 1.457l2.516 3.396 2.052 2.768c.44.596 1.416.487 1.879 0 .559-.587.442-1.377 0-1.973l-4.3-5.804z"/>
</svg>