<svg width="132" height="33" viewBox="0 0 132 33" fill="none" xmlns="http://www.w3.org/2000/svg">
<path d="M18.2134 20.8003C17.1841 20.8014 16.3931 19.9892 16.3828 18.9202C16.3732 17.9299 17.179 17.0786 18.1314 17.0726C19.1685 17.0663 20.0022 17.8856 20.0094 18.9183C20.0167 19.9147 19.1729 20.7992 18.2134 20.8003ZM19.4844 21.0654C20.1934 21.525 20.9707 21.7237 21.7977 21.6207C22.1286 21.5794 22.6052 21.497 22.7328 21.2684C23.0255 20.7452 23.144 20.1202 23.383 19.382C22.1876 19.6813 21.1881 19.7019 20.1507 19.136C20.4364 18.9558 20.6271 18.8324 20.8204 18.7136C21.5565 18.2618 22.1069 17.6486 22.3537 16.7959C22.4241 16.5531 22.5253 16.2047 22.4161 16.0438C22.0753 15.5422 21.6406 15.1071 21.1692 14.5615C20.8046 15.7486 20.3318 16.6458 19.3846 17.2803C19.3313 16.7005 19.3111 16.2177 19.2381 15.7434C19.1085 14.9016 18.7203 14.11 17.9819 13.7895C17.4077 13.5403 16.6977 13.829 16.0619 14.2043C16.8234 15.0078 17.3094 15.8894 17.4113 17.103C17.1143 16.9364 16.9181 16.8334 16.7285 16.7187C16.0363 16.3001 15.2831 16.1193 14.498 16.2599C14.1469 16.3224 13.6874 16.4817 13.5249 16.7524C13.2524 17.2058 13.1784 17.7837 12.9766 18.4575C14.135 18.1577 15.154 18.1601 16.2443 18.7057C15.9791 18.865 15.8024 18.9405 15.6627 19.0612C15.2368 19.4285 14.77 19.7677 14.4232 20.204C14.0644 20.656 13.676 21.2532 13.9306 21.8188C14.1712 22.3543 14.6944 22.7569 15.1886 23.3283C15.5413 22.129 16.0306 21.2464 16.9999 20.5671C17.0247 20.8876 17.0196 21.1137 17.0633 21.3296C17.1836 21.9216 17.2377 22.5484 17.475 23.0899C17.9728 24.2274 19.2893 24.4574 20.2387 23.6411C19.1882 22.1347 18.9545 21.6087 19.0239 20.8093C19.1959 20.9044 19.346 20.9757 19.4844 21.0654Z" fill="#BD1622"/>
<path d="M18.172 19.898C17.7261 19.9002 17.2896 19.4259 17.2831 18.9325C17.2769 18.4503 17.7269 17.9725 18.1808 17.979C18.6861 17.9866 19.0696 18.3922 19.0685 18.9181C19.0672 19.4675 18.6757 19.8956 18.172 19.898ZM18.1533 17.63C17.5039 17.6341 16.9545 18.2307 16.961 18.9249C16.968 19.6741 17.5072 20.2435 18.2092 20.2427C18.8633 20.2419 19.4385 19.6222 19.4336 18.9236C19.4285 18.1997 18.8602 17.6256 18.1533 17.63ZM44.7243 23.2803C44.4412 23.6 44.116 23.7593 43.7483 23.7593H42.645V19.8812H43.7483C44.116 19.8812 44.4412 20.0448 44.7243 20.3716C45.0071 20.6986 45.1486 21.174 45.1486 21.7981C45.1486 22.4668 45.0071 22.9606 44.7243 23.2803ZM42.645 13.8188H43.5998C44.0099 13.8188 44.3212 13.9824 44.5333 14.3092C44.7455 14.6362 44.8516 15.0224 44.8516 15.4682C44.8516 15.8993 44.7455 16.2741 44.5333 16.5938C44.3212 16.9135 44.0099 17.0728 43.5998 17.0728H42.645V13.8188ZM48.1719 25.4309C48.5326 25.0153 48.7978 24.5171 48.9676 23.9376C49.1373 23.3583 49.2222 22.7266 49.2222 22.0433C49.2222 21.6274 49.1691 21.215 49.063 20.8062C48.957 20.3977 48.7906 20.0225 48.5644 19.6806C48.338 19.3389 48.048 19.053 47.6945 18.8225C47.3408 18.5922 46.9164 18.4547 46.4214 18.4101V18.3655C46.8458 18.2766 47.2065 18.1203 47.5035 17.8975C47.8006 17.6746 48.0446 17.4038 48.2356 17.0839C48.4265 16.7645 48.5678 16.4082 48.6599 16.014C48.7518 15.6207 48.7978 15.2157 48.7978 14.7995C48.7978 13.5959 48.4617 12.6339 47.79 11.9131C47.118 11.1925 46.0747 10.832 44.6606 10.832H38.6987V26.746H44.6606C45.4809 26.746 46.1808 26.631 46.7609 26.4005C47.3408 26.1703 47.8112 25.8471 48.1719 25.4309ZM59.4167 25.8322C59.8481 25.3864 60.1767 24.7924 60.4031 24.049C60.6293 23.3064 60.7426 22.3773 60.7426 21.2631V10.832H56.7964V22.3107C56.7964 23.0835 56.6903 23.6 56.4781 23.8598C56.2659 24.1197 55.9759 24.2496 55.6082 24.2496C55.2402 24.2496 54.9504 24.1197 54.7383 23.8598C54.5261 23.6 54.4202 23.0835 54.4202 22.3107V10.832H50.4738V21.2631C50.4738 22.3773 50.5868 23.3064 50.8132 24.049C51.0394 24.7924 51.3683 25.3864 51.7999 25.8322C52.2312 26.2779 52.7684 26.5827 53.4124 26.746C54.0557 26.9094 54.7877 26.9912 55.6082 26.9912C56.4427 26.9912 57.1783 26.9094 57.8148 26.746C58.4513 26.5827 58.9851 26.2779 59.4167 25.8322ZM67.0654 23.7593H66.2804V13.8188H67.0654C67.4474 13.8188 67.7511 13.8745 67.9776 13.986C68.2037 14.0974 68.3771 14.3314 68.4974 14.6881C68.6174 15.0447 68.6953 15.55 68.7308 16.2037C68.766 16.8575 68.7838 17.7191 68.7838 18.789C68.7838 19.8589 68.766 20.7208 68.7308 21.3746C68.6953 22.0286 68.6174 22.5336 68.4974 22.8902C68.3771 23.2466 68.2037 23.4806 67.9776 23.5924C67.7511 23.7035 67.4474 23.7593 67.0654 23.7593ZM70.7358 26.0885C71.3724 25.6503 71.8498 25.0632 72.168 24.3276C72.4863 23.5924 72.6804 22.7454 72.7515 21.7869C72.8222 20.8285 72.8574 19.8293 72.8574 18.789C72.8574 17.7493 72.8222 16.7496 72.7515 15.7914C72.6804 14.833 72.4863 13.986 72.168 13.2504C71.8498 12.5149 71.3724 11.928 70.7358 11.4896C70.0993 11.0514 69.2082 10.832 68.0624 10.832H62.3339V26.746H68.0624C69.2082 26.746 70.0993 26.5269 70.7358 26.0885ZM80.6864 18.6107H74.0668V21.9987H80.6864V18.6107ZM88.0909 26.746L89.4063 16.0477H89.4488L90.7643 26.746H95.0924L97.681 10.832H93.8621L92.8012 21.8424H92.7587L91.2098 10.832H87.6453L86.224 21.8424H86.1815L84.9933 10.832H81.1742L83.7627 26.746H88.0909ZM107.674 23.3583H102.455V20.1932H107.165V16.939H102.455V14.22H107.483V10.832H98.5085V26.746H107.674V23.3583ZM112.703 16.917H112.745L115.376 26.746H119.704V10.832H116.013V20.639H115.97L113.424 10.832H109.011V26.746H112.703V16.917ZM123.459 26.746H127.406V14.3537H130.376V10.832H120.532V14.3537H123.459V26.746Z" fill="#3C3C3B"/>
<path d="M30.6691 19.1393C30.5904 19.0333 30.512 18.9273 30.4334 18.8213C30.3702 16.5385 30.3074 14.2552 30.2442 11.9725C30.2346 11.6251 30.2251 11.2774 30.2152 10.93C30.1943 10.1695 29.6235 9.54321 28.8868 9.53451C27.5879 9.51902 26.2887 9.50353 24.9897 9.48803C24.2689 9.47934 23.6649 10.1344 23.6611 10.8836C23.66 11.1266 23.6587 11.3696 23.6574 11.6126C22.343 10.0907 21.0283 8.56847 19.7138 7.04627C19.4199 6.70595 19.1259 6.36591 18.8322 6.02559C18.3817 5.50424 17.3956 5.46346 16.9532 6.02559C15.2661 8.16835 13.579 10.3111 11.8917 12.4539C9.21364 15.8554 6.53556 19.2567 3.85748 22.658C3.24088 23.4411 2.62453 24.224 2.00792 25.0071C1.66197 25.4466 1.50258 25.9805 1.73339 26.5317C1.94453 27.0367 2.40795 27.3896 2.94745 27.3896H26.7195C27.4145 27.3896 28.0803 26.7478 28.0482 25.994C28.0159 25.2378 27.4645 24.5982 26.7195 24.5982H5.76293C6.82459 23.2495 7.88651 21.901 8.94842 20.5525C11.6265 17.1512 14.3046 13.7496 16.9827 10.3483C17.3004 9.94469 17.6182 9.54104 17.9362 9.13739C19.6732 11.1486 21.4099 13.1598 23.1469 15.171C23.4409 15.511 23.7348 15.8513 24.0287 16.1917C24.819 17.1069 26.2908 16.3713 26.2967 15.205C26.3016 14.2348 26.3063 13.265 26.3112 12.2951C26.7397 12.3003 27.1679 12.3054 27.5964 12.3103C27.6518 14.3139 27.7072 16.3178 27.7625 18.3214C27.7713 18.6454 27.769 18.9721 27.7894 19.2956C27.827 19.8949 28.191 20.3043 28.5227 20.752C29.3614 21.8841 30.2002 23.0163 31.0388 24.1484L33.09 26.9166C33.5311 27.5122 34.5059 27.4032 34.969 26.9166C35.5282 26.3289 35.4112 25.5398 34.969 24.9429C33.5355 23.0084 32.1023 21.0738 30.6691 19.1393Z" fill="#3C3C3B"/>
</svg>
