<?xml version="1.0" standalone="no"?>
<!DOCTYPE svg PUBLIC "-//W3C//DTD SVG 20010904//EN"
 "http://www.w3.org/TR/2001/REC-SVG-20010904/DTD/svg10.dtd">
<svg version="1.0" xmlns="http://www.w3.org/2000/svg"
 width="700.000000pt" height="700.000000pt" viewBox="0 0 700.000000 700.000000"
 preserveAspectRatio="xMidYMid meet">
<metadata>
Created by potrace 1.14, written by Peter Selinger 2001-2017
</metadata>
<g transform="translate(0.000000,700.000000) scale(0.100000,-0.100000)"
fill="#000000" stroke="none">
<path d="M3310 5608 c-58 -16 -91 -49 -257 -260 -281 -358 -465 -591 -538
-683 -39 -49 -124 -157 -189 -240 -65 -82 -125 -159 -134 -170 -10 -11 -30
-38 -47 -60 -16 -22 -35 -46 -42 -53 -7 -8 -26 -30 -41 -50 -15 -20 -130 -167
-256 -327 -125 -159 -240 -305 -255 -324 -40 -52 -174 -221 -296 -376 -61 -77
-201 -254 -310 -394 -110 -140 -305 -387 -433 -550 -238 -301 -279 -364 -289
-446 -12 -99 53 -216 147 -262 l55 -28 2365 0 2365 0 46 22 c95 47 151 129
155 227 5 114 -58 224 -156 270 l-45 21 -2057 1 c-1132 0 -2060 2 -2062 5 -2
2 39 58 91 124 53 66 175 221 272 345 98 124 233 295 300 380 67 85 174 221
237 302 63 81 120 153 127 160 6 7 25 31 42 53 16 22 35 47 42 55 7 8 60 76
118 150 58 74 111 142 118 150 7 8 77 98 157 199 80 101 176 222 213 270 38
47 81 102 95 121 15 20 144 183 286 363 247 314 260 328 276 310 9 -10 118
-135 241 -278 200 -232 554 -643 647 -750 19 -22 95 -111 170 -198 158 -183
194 -208 291 -203 101 6 189 66 236 161 19 37 20 63 23 356 l3 316 125 -1 c75
0 124 -5 125 -11 0 -5 2 -62 4 -125 6 -232 16 -569 20 -730 14 -526 14 -528
36 -585 20 -53 63 -114 378 -540 74 -99 147 -198 163 -220 416 -562 494 -660
541 -684 96 -47 227 -19 300 64 68 77 82 195 35 296 -14 30 -83 134 -155 230
-71 96 -259 350 -418 564 -158 215 -302 408 -319 429 -17 22 -31 45 -32 52 -1
7 -5 134 -9 281 -4 147 -8 329 -11 403 -2 74 -6 225 -9 335 -15 580 -14 566
-47 632 -28 56 -69 97 -125 124 -52 25 -54 25 -598 30 -295 3 -312 2 -355 -18
-58 -26 -104 -71 -133 -130 -24 -50 -30 -84 -31 -191 0 -34 -4 -61 -7 -60 -4
2 -35 37 -70 78 -35 41 -78 91 -95 110 -17 19 -76 87 -130 150 -171 200 -287
335 -293 340 -3 3 -21 23 -40 45 -18 22 -57 67 -85 99 -28 33 -71 82 -95 110
-126 146 -155 176 -198 196 -51 24 -131 31 -183 18z"/>
<path d="M3234 4036 c-28 -7 -86 -29 -129 -49 l-77 -37 43 -52 c24 -29 46 -55
49 -58 12 -11 59 -89 83 -136 26 -52 62 -156 72 -209 12 -63 15 -105 9 -105
-4 0 -45 22 -93 49 -47 27 -106 58 -131 69 -143 61 -324 62 -446 2 -50 -24
-65 -38 -87 -78 -22 -40 -102 -301 -94 -308 1 -1 40 6 87 16 57 11 125 16 205
15 105 -2 132 -6 214 -34 135 -45 133 -42 65 -84 -33 -20 -104 -76 -158 -124
-159 -141 -234 -249 -243 -353 -6 -67 10 -110 71 -185 65 -80 183 -198 188
-189 3 5 13 34 23 64 27 85 83 199 131 266 40 57 183 198 191 190 2 -2 6 -32
9 -67 2 -35 9 -91 15 -124 6 -33 13 -73 16 -89 13 -79 46 -183 74 -237 86
-161 272 -214 446 -127 78 38 79 44 24 123 -73 106 -150 244 -166 300 -18 62
-28 162 -17 169 5 3 35 -11 68 -31 151 -92 262 -123 419 -118 127 4 201 27
233 75 19 29 95 247 116 333 6 24 4 28 -11 23 -70 -22 -217 -38 -298 -33 -118
8 -155 16 -257 59 -50 21 -58 32 -33 42 8 3 55 31 103 62 113 74 207 170 255
261 41 78 77 201 69 238 -4 22 -75 117 -144 194 -18 20 -49 55 -70 78 l-36 41
-27 -77 c-35 -97 -80 -192 -119 -250 -34 -52 -150 -172 -182 -189 -20 -10 -21
-8 -23 42 -1 30 -4 64 -6 77 -2 13 -6 55 -10 93 -15 162 -68 297 -147 378 -77
80 -172 109 -274 84z m305 -663 c158 -47 262 -193 255 -356 -3 -72 -18 -119
-56 -179 -125 -199 -376 -230 -538 -68 -76 76 -103 143 -104 260 0 72 4 94 27
143 79 172 245 251 416 200z"/>
<path d="M3362 3267 c-88 -33 -152 -126 -156 -227 -7 -145 97 -262 234 -264
156 -3 276 159 234 317 -17 65 -48 107 -105 147 -39 26 -60 33 -111 36 -36 2
-77 -2 -96 -9z m176 -84 c15 -11 37 -37 50 -59 33 -56 27 -158 -12 -209 -37
-49 -71 -68 -120 -71 -121 -6 -217 119 -181 236 11 36 53 89 89 111 41 26 134
22 174 -8z"/>
</g>
</svg>
