<svg width="97" height="97" viewBox="0 0 97 97" fill="none" xmlns="http://www.w3.org/2000/svg">
<rect width="96" height="96" transform="translate(0.0380859 0.117188)" fill="#CCB8F8"/>
<path fill-rule="evenodd" clip-rule="evenodd" d="M48.0382 50.0105V50.0105C44.8986 50.0105 42.354 47.4659 42.354 44.3263V44.3263C42.354 41.1867 44.8986 38.6421 48.0382 38.6421V38.6421C51.1778 38.6421 53.7224 41.1867 53.7224 44.3263V44.3263C53.7224 47.4659 51.1778 50.0105 48.0382 50.0105Z" stroke="#000030" stroke-width="1.89474" stroke-linecap="round" stroke-linejoin="round"/>
<path fill-rule="evenodd" clip-rule="evenodd" d="M48.039 65.1673C48.039 65.1673 34.7759 54.2725 34.7759 44.3252C34.7759 37.0001 40.714 31.062 48.039 31.062C55.3641 31.062 61.3022 37.0001 61.3022 44.3252C61.3022 54.2725 48.039 65.1673 48.039 65.1673Z" stroke="#000030" stroke-width="1.89474" stroke-linecap="round" stroke-linejoin="round"/>
</svg>
