<svg width="96" height="96" viewBox="0 0 96 96" fill="none" xmlns="http://www.w3.org/2000/svg">
<rect width="95.9963" height="95.9963" fill="#CCB8F8"/>
<path fill-rule="evenodd" clip-rule="evenodd" d="M45.2335 31.8943H51.8561C59.1425 31.8943 65.0493 37.8011 65.0493 45.0875V45.2244C65.0493 48.7235 63.6593 52.0792 61.1851 54.5534C58.7109 57.0276 55.3551 58.4176 51.8561 58.4176H49.9174C49.9037 58.4176 49.8926 58.4287 49.8926 58.4424V62.7286C49.8926 63.2136 49.6365 63.6625 49.2191 63.9093C48.8016 64.1561 48.2849 64.1642 47.86 63.9305L38.3486 58.6994C33.7833 56.1885 30.9468 51.3914 30.9468 46.1811V46.1811C30.9468 42.392 32.452 38.7581 35.1313 36.0788C37.8106 33.3995 41.4445 31.8943 45.2335 31.8943Z" stroke="#000030" stroke-width="1.89" stroke-linecap="round" stroke-linejoin="round"/>
<path d="M42.3145 43.2617H53.682" stroke="#000030" stroke-width="1.89" stroke-linecap="round" stroke-linejoin="round"/>
<path d="M42.3145 48.9456H46.8615" stroke="#000030" stroke-width="1.89" stroke-linecap="round" stroke-linejoin="round"/>
</svg>
