<svg width="24" height="25" viewBox="0 0 24 25" fill="none" xmlns="http://www.w3.org/2000/svg">
<g clip-path="url(#clip0_2293_1672)">
<path d="M3.15707 3.4089C1.76207 3.4089 0.630859 4.54011 0.630859 5.9354V18.9332L10.9634 8.60075C10.8115 7.94648 10.7354 7.27681 10.736 6.60507C10.736 5.4555 10.9885 4.36929 11.4811 3.40919H3.15707M19.5782 24.8827C20.9734 24.8827 22.1044 23.7515 22.1044 22.3565V13.3376C21.1443 14.7776 19.9695 16.3061 18.6811 17.9355L17.6831 19.1988L16.6979 17.9355C15.0178 15.8513 13.5399 13.9187 12.4916 12.1377C12.062 11.405 11.6958 10.685 11.4054 9.95252L6.26442 15.0935L16.054 24.883H19.5782M0.630859 22.3562C0.630859 23.7515 1.76207 24.8824 3.15707 24.8824H14.2602L5.36768 15.9899L0.630859 20.7267V22.3562ZM17.6834 17.3038C20.9802 13.0469 23.3676 9.85127 23.3676 6.6554C23.3676 3.45952 20.8414 0.88269 17.6834 0.88269C14.5254 0.88269 11.9992 3.47225 11.9992 6.6554C11.9992 9.83854 14.3614 13.0469 17.6834 17.3038ZM20.2096 6.56688C20.2096 7.96217 19.0784 9.09308 17.6834 9.09308C16.2884 9.09308 15.1572 7.96187 15.1572 6.56688C15.1572 5.17188 16.2884 4.04067 17.6834 4.04067C19.0787 4.04067 20.2096 5.17188 20.2096 6.56688Z" fill="#334EB9"/>
</g>
<defs>
<clipPath id="clip0_2293_1672">
<rect width="24" height="24" fill="white" transform="translate(0 0.882812)"/>
</clipPath>
</defs>
</svg>
