<svg width="22" height="16" viewBox="0 0 22 16" fill="none" xmlns="http://www.w3.org/2000/svg">
<g clip-path="url(#clip0_2114_838)">
<mask id="mask0_2114_838" style="mask-type:alpha" maskUnits="userSpaceOnUse" x="0" y="0" width="22" height="16">
<path d="M19.7861 0.5H2.78613C1.68156 0.5 0.786133 1.39543 0.786133 2.5V13.5C0.786133 14.6046 1.68156 15.5 2.78613 15.5H19.7861C20.8907 15.5 21.7861 14.6046 21.7861 13.5V2.5C21.7861 1.39543 20.8907 0.5 19.7861 0.5Z" fill="white"/>
</mask>
<g mask="url(#mask0_2114_838)">
<path d="M19.7861 0.5H2.78613C1.68156 0.5 0.786133 1.39543 0.786133 2.5V13.5C0.786133 14.6046 1.68156 15.5 2.78613 15.5H19.7861C20.8907 15.5 21.7861 14.6046 21.7861 13.5V2.5C21.7861 1.39543 20.8907 0.5 19.7861 0.5Z" fill="#DF0A37"/>
<path fill-rule="evenodd" clip-rule="evenodd" d="M0.786133 0.5H21.7861V8.5H0.786133V0.5Z" fill="white"/>
<path d="M19.7861 1H2.78613C1.95771 1 1.28613 1.67157 1.28613 2.5V13.5C1.28613 14.3284 1.95771 15 2.78613 15H19.7861C20.6146 15 21.2861 14.3284 21.2861 13.5V2.5C21.2861 1.67157 20.6146 1 19.7861 1Z" stroke="black" stroke-opacity="0.1"/>
</g>
</g>
<defs>
<clipPath id="clip0_2114_838">
<rect width="21" height="15" fill="white" transform="translate(0.786133 0.5)"/>
</clipPath>
</defs>
</svg>
