<svg width="40" height="40" viewBox="0 0 40 40" fill="none" xmlns="http://www.w3.org/2000/svg">
<rect x="0.5" y="0.5" width="39" height="39.0047" rx="19.5" stroke="white" stroke-opacity="0.16"/>
<path fill-rule="evenodd" clip-rule="evenodd" d="M20.0182 12H19.9818C15.5736 12 12 15.5746 12 19.9841V20.0206C12 24.4301 15.5736 28.0047 19.9818 28.0047H20.0182C24.4264 28.0047 28 24.4301 28 20.0206V19.9841C28 15.5746 24.4264 12 20.0182 12ZM15.8174 17.3209C15.6066 17.1252 15.5018 16.8829 15.5018 16.5947C15.5018 16.3065 15.6072 16.0536 15.8174 15.8574C16.0282 15.6617 16.2995 15.5636 16.6319 15.5636C16.9643 15.5636 17.225 15.6617 17.4352 15.8574C17.646 16.0531 17.7508 16.2992 17.7508 16.5947C17.7508 16.8902 17.6454 17.1252 17.4352 17.3209C17.2244 17.5166 16.957 17.6147 16.6319 17.6147C16.3068 17.6147 16.0282 17.5166 15.8174 17.3209ZM17.5736 18.4434V24.4432H15.6784V18.4434H17.5736ZM24.5025 20.8841C24.5025 20.1002 24.2963 19.4845 23.8831 19.036V19.0354C23.4706 18.5874 22.9179 18.3631 22.2261 18.3631C21.8377 18.3631 21.4884 18.4388 21.1779 18.5908C20.8673 18.7427 20.6201 18.9491 20.4368 19.2103V18.4265H18.6262V24.337H20.4368V21.1275C20.4368 20.7322 20.5394 20.4249 20.744 20.2062C20.9486 19.9869 21.2244 19.8776 21.5697 19.8776C21.915 19.8776 22.1908 19.9875 22.3954 20.2062C22.6 20.4249 22.7026 20.7322 22.7026 21.1275V24.337H24.5025V20.8841Z" fill="white"/>
</svg>
