<svg width="40" height="40" viewBox="0 0 40 40" fill="none" xmlns="http://www.w3.org/2000/svg">
<rect x="0.5" y="0.500244" width="39" height="39.0042" rx="19.5" stroke="white" stroke-opacity="0.16"/>
<path fill-rule="evenodd" clip-rule="evenodd" d="M21.1132 27.9276C25.0039 27.3854 27.9989 24.0441 27.9989 20.0026H28C28 15.5831 24.4182 12.0002 20 12.0002C15.5818 12.0002 12 15.5831 12 20.0026C12 23.9853 14.9092 27.2889 18.718 27.9023C19.1351 27.9696 19.5633 28.0044 19.9994 28.0044C20.3772 28.0044 20.7494 27.978 21.1132 27.9276ZM18.934 20.4615L15.2445 15.5273H15.2451H18.0887L20.5074 18.762L23.5007 15.5273H24.3364L20.8807 19.2616L24.7776 24.4733H21.934L19.3078 20.9611L16.0573 24.4733H15.2215L18.934 20.4615ZM17.7793 16.143H16.4732L22.2417 23.8577H23.5478L17.7793 16.143Z" fill="white"/>
</svg>
