<svg width="40" height="40" viewBox="0 0 40 40" fill="none" xmlns="http://www.w3.org/2000/svg">
<rect x="0.5" y="0.502441" width="39" height="39" rx="19.5" stroke="white" stroke-opacity="0.16"/>
<path fill-rule="evenodd" clip-rule="evenodd" d="M21.1132 28.0024C25.0039 27.4578 27.9989 24.1013 27.9989 20.0413H28C28 15.6017 24.4182 12.0024 20 12.0024C15.5818 12.0024 12 15.6017 12 20.0413C12 24.042 14.909 27.3607 18.7177 27.977V22.5686H16.7295V20.2097H18.7177V18.0671C18.7177 16.7378 19.79 15.6597 21.1135 15.6597V15.6608C21.1154 15.6608 21.1172 15.6605 21.1191 15.6602C21.1209 15.66 21.1227 15.6597 21.1247 15.6597H23.2693V17.6998H21.8679C21.4515 17.6998 21.1135 18.0395 21.1135 18.458L21.1129 18.4585V20.2097H23.2687L22.9274 22.5686H21.1129V28.0025C21.113 28.0025 21.1131 28.0025 21.1132 28.0024Z" fill="white"/>
</svg>
